<svg width="32" height="32" viewBox="0 0 32 32" fill="none" xmlns="http://www.w3.org/2000/svg">
<path fill-rule="evenodd" clip-rule="evenodd" d="M20.708 12.292C20.8012 12.3849 20.8751 12.4953 20.9255 12.6167C20.9759 12.7382 21.0018 12.8685 21.0018 13C21.0018 13.1316 20.9759 13.2618 20.9255 13.3833C20.8751 13.5048 20.8012 13.6151 20.708 13.708L14.708 19.708C14.6152 19.8011 14.5048 19.875 14.3833 19.9254C14.2618 19.9759 14.1316 20.0018 14 20.0018C13.8685 20.0018 13.7383 19.9759 13.6168 19.9254C13.4953 19.875 13.3849 19.8011 13.292 19.708L10.292 16.708C10.1991 16.615 10.1253 16.5047 10.075 16.3832C10.0247 16.2617 9.99878 16.1315 9.99878 16C9.99878 15.8685 10.0247 15.7383 10.075 15.6168C10.1253 15.4954 10.1991 15.385 10.292 15.292C10.385 15.199 10.4954 15.1253 10.6169 15.075C10.7384 15.0247 10.8686 14.9988 11 14.9988C11.1315 14.9988 11.2617 15.0247 11.3832 15.075C11.5047 15.1253 11.6151 15.199 11.708 15.292L14 17.586L19.292 12.292C19.3849 12.1989 19.4953 12.125 19.6168 12.0746C19.7383 12.0242 19.8685 11.9982 20 11.9982C20.1316 11.9982 20.2618 12.0242 20.3833 12.0746C20.5048 12.125 20.6152 12.1989 20.708 12.292Z" fill="#9147FF"/>
<path d="M20.5452 5.02518L18.7032 3.13718L20.1332 1.74118L21.3772 3.01518L23.1572 2.99318C23.9277 2.98406 24.6923 3.1291 25.4059 3.41976C26.1196 3.71042 26.7679 4.14084 27.3127 4.6857C27.8576 5.23057 28.288 5.87888 28.5787 6.59251C28.8693 7.30614 29.0144 8.07068 29.0052 8.84118L28.9852 10.6212L30.2572 11.8652C30.8082 12.4035 31.2459 13.0466 31.5448 13.7565C31.8437 14.4664 31.9976 15.2289 31.9976 15.9992C31.9976 16.7695 31.8437 17.532 31.5448 18.2419C31.2459 18.9518 30.8082 19.5948 30.2572 20.1332L28.9832 21.3772L29.0052 23.1572C29.0144 23.9277 28.8693 24.6922 28.5787 25.4059C28.288 26.1195 27.8576 26.7678 27.3127 27.3127C26.7679 27.8575 26.1196 28.2879 25.4059 28.5786C24.6923 28.8693 23.9277 29.0143 23.1572 29.0052L21.3772 28.9852L20.1332 30.2572C19.5949 30.8081 18.9519 31.2459 18.242 31.5447C17.532 31.8436 16.7695 31.9976 15.9992 31.9976C15.229 31.9976 14.4665 31.8436 13.7565 31.5447C13.0466 31.2459 12.4036 30.8081 11.8652 30.2572L10.6212 28.9832L8.84124 29.0052C8.07074 29.0143 7.3062 28.8693 6.59257 28.5786C5.87894 28.2879 5.23063 27.8575 4.68576 27.3127C4.1409 26.7678 3.71048 26.1195 3.41982 25.4059C3.12916 24.6922 2.98413 23.9277 2.99325 23.1572L3.01325 21.3772L1.74125 20.1332C1.19033 19.5948 0.752566 18.9518 0.453691 18.2419C0.154816 17.532 0.000854492 16.7695 0.000854492 15.9992C0.000854492 15.2289 0.154816 14.4664 0.453691 13.7565C0.752566 13.0466 1.19033 12.4035 1.74125 11.8652L3.01525 10.6212L2.99325 8.84118C2.98413 8.07068 3.12916 7.30614 3.41982 6.59251C3.71048 5.87888 4.1409 5.23057 4.68576 4.6857C5.23063 4.14084 5.87894 3.71042 6.59257 3.41976C7.3062 3.1291 8.07074 2.98406 8.84124 2.99318L10.6212 3.01318L11.8652 1.74118C12.4036 1.19026 13.0466 0.752505 13.7565 0.45363C14.4665 0.154755 15.229 0.000793457 15.9992 0.000793457C16.7695 0.000793457 17.532 0.154755 18.242 0.45363C18.9519 0.752505 19.5949 1.19026 20.1332 1.74118L18.7032 3.13718C18.3512 2.77676 17.9306 2.49035 17.4662 2.29481C17.0019 2.09928 16.5031 1.99854 15.9992 1.99854C15.4954 1.99854 14.9966 2.09928 14.5323 2.29481C14.0679 2.49035 13.6473 2.77676 13.2952 3.13718L11.4552 5.02518L8.81524 4.99318C8.3116 4.98755 7.81191 5.08263 7.34553 5.27284C6.87915 5.46304 6.45548 5.74454 6.09942 6.10078C5.74336 6.45703 5.46209 6.88084 5.27213 7.34732C5.08217 7.8138 4.98735 8.31354 4.99325 8.81718L5.02525 11.4532L3.13725 13.2952C2.77682 13.6473 2.49042 14.0678 2.29488 14.5322C2.09934 14.9966 1.99861 15.4953 1.99861 15.9992C1.99861 16.503 2.09934 17.0018 2.29488 17.4662C2.49042 17.9305 2.77682 18.3511 3.13725 18.7032L5.02525 20.5432L4.99325 23.1832C4.98761 23.6868 5.08269 24.1865 5.2729 24.6529C5.4631 25.1193 5.7446 25.5429 6.10084 25.899C6.45709 26.2551 6.8809 26.5363 7.34738 26.7263C7.81386 26.9163 8.3136 27.0111 8.81724 27.0052L11.4532 26.9732L13.2952 28.8612C13.6473 29.2216 14.0679 29.508 14.5323 29.7036C14.9966 29.8991 15.4954 29.9998 15.9992 29.9998C16.5031 29.9998 17.0019 29.8991 17.4662 29.7036C17.9306 29.508 18.3512 29.2216 18.7032 28.8612L20.5432 26.9732L23.1832 27.0052C23.6869 27.0108 24.1866 26.9157 24.653 26.7255C25.1193 26.5353 25.543 26.2538 25.8991 25.8976C26.2551 25.5413 26.5364 25.1175 26.7264 24.651C26.9163 24.1846 27.0111 23.6848 27.0052 23.1812L26.9732 20.5452L28.8612 18.7032C29.2217 18.3511 29.5081 17.9305 29.7036 17.4662C29.8992 17.0018 29.9999 16.503 29.9999 15.9992C29.9999 15.4953 29.8992 14.9966 29.7036 14.5322C29.5081 14.0678 29.2217 13.6473 28.8612 13.2952L26.9732 11.4552L27.0052 8.81518C27.0109 8.31154 26.9158 7.81185 26.7256 7.34547C26.5354 6.87909 26.2539 6.45542 25.8976 6.09936C25.5414 5.7433 25.1176 5.46203 24.6511 5.27207C24.1846 5.08211 23.6849 4.98729 23.1812 4.99318L20.5452 5.02518Z" fill="#9147FF"/>
</svg>
