<svg width="67" height="71" viewBox="0 0 67 71" fill="none" xmlns="http://www.w3.org/2000/svg">
<g filter="url(#filter0_d)">
<path d="M63.9371 35.9423C64.7393 35.121 65.19 34.0073 65.19 32.8461C65.19 31.6849 64.7393 30.5712 63.9371 29.7499L51.5549 17.0784L57.7599 10.8116C58.6751 11.0448 59.64 10.9623 60.5047 10.5769C61.3695 10.1916 62.0858 9.52499 62.5425 8.68049C62.9992 7.83599 63.1708 6.86084 63.0307 5.90634C62.8906 4.95185 62.4465 4.07137 61.7674 3.40152C61.0883 2.73167 60.2122 2.30991 59.275 2.20168C58.3378 2.09344 57.3919 2.30479 56.584 2.80291C55.7761 3.30104 55.1515 4.0581 54.807 4.95663C54.4625 5.85516 54.4174 6.84492 54.6788 7.77234L48.5294 13.9822L36.1215 1.2822C35.3191 0.461209 34.2308 0 33.0961 0C31.9614 0 30.8731 0.461209 30.0706 1.2822L17.6884 13.9581L11.5647 7.60374C11.7914 6.6669 11.7096 5.67969 11.332 4.79527C10.9545 3.91085 10.3023 3.17866 9.47661 2.71228C8.65094 2.2459 7.69794 2.07142 6.76547 2.21588C5.83301 2.36035 4.97319 2.8157 4.31941 3.51128C3.66563 4.20687 3.25443 5.10382 3.14962 6.06297C3.0448 7.02212 3.25222 7.98987 3.73969 8.81607C4.22717 9.64227 4.96745 10.2808 5.8457 10.6325C6.72394 10.9842 7.69106 11.0294 8.59701 10.7612L14.6629 17.0521L2.25292 29.7499C1.45068 30.5712 1 31.6849 1 32.8461C1 34.0073 1.45068 35.121 2.25292 35.9423L14.6629 48.6401L8.59701 54.931C7.69297 54.6645 6.72829 54.7107 5.85249 55.0623C4.97669 55.4139 4.23868 56.0513 3.75287 56.8758C3.26705 57.7003 3.06055 58.6657 3.16538 59.6225C3.27022 60.5793 3.68052 61.4739 4.3327 62.1678C4.98488 62.8617 5.84251 63.3161 6.77266 63.4605C7.7028 63.6048 8.65352 63.4312 9.47744 62.9665C10.3014 62.5017 10.9525 61.7718 11.3298 60.8899C11.7072 60.008 11.7898 59.0233 11.5647 58.0885L17.6884 51.7385L30.0706 64.4078C30.8731 65.2288 31.9614 65.69 33.0961 65.69C34.2308 65.69 35.3191 65.2288 36.1215 64.4078L48.5316 51.71L54.6766 57.9198C54.4163 58.845 54.4614 59.8322 54.8049 60.7285C55.1485 61.6248 55.7714 62.38 56.5771 62.8772C57.3827 63.3744 58.3261 63.5857 59.261 63.4784C60.196 63.3711 61.0702 62.9512 61.7482 62.2838C62.4263 61.6164 62.8703 60.7387 63.0114 59.7868C63.1524 58.8349 62.9828 57.862 62.5286 57.0188C62.0745 56.1757 61.3613 55.5094 60.4995 55.1232C59.6377 54.737 58.6755 54.6525 57.762 54.8828L51.557 48.6138L63.9371 35.9423ZM33.0961 61.3116L5.28054 32.8461L33.0961 4.38057L60.9116 32.8461L33.0961 61.3116Z" fill="#9147FF"/>
<path d="M51.1996 16.7266L50.8535 17.0761L51.1973 17.4278L63.5794 30.0993C64.2892 30.826 64.69 31.8138 64.69 32.8461C64.69 33.8784 64.2892 34.8662 63.5794 35.5929L51.1994 48.2644L50.8558 48.6161L51.2017 48.9655L57.4067 55.2345L57.6075 55.4374L57.8843 55.3676C58.6884 55.1649 59.5355 55.2391 60.295 55.5794C61.0547 55.9199 61.6858 56.5083 62.0884 57.2559C62.4912 58.0037 62.6421 58.8677 62.5168 59.7135C62.3914 60.5593 61.9972 61.3372 61.3975 61.9275C60.798 62.5176 60.0268 62.8872 59.204 62.9817C58.3813 63.0761 57.5504 62.8903 56.8396 62.4517C56.1287 62.0129 55.5768 61.345 55.2718 60.5495C54.9668 59.7539 54.9267 58.877 55.1579 58.0553L55.2368 57.7751L55.032 57.5682L48.887 51.3583L48.5293 50.9969L48.174 51.3605L35.764 64.0583C35.0543 64.7843 34.0944 65.19 33.0961 65.19C32.0977 65.19 31.1378 64.7843 30.4282 64.0583L18.046 51.389L17.686 51.0206L17.3285 51.3914L11.2048 57.7414L11.0144 57.9388L11.0786 58.2055C11.2785 59.0359 11.205 59.9105 10.8701 60.6932C10.5353 61.4757 9.95863 62.121 9.23179 62.531C8.50516 62.9408 7.66792 63.0934 6.84936 62.9664C6.03069 62.8393 5.27387 62.4391 4.69703 61.8254C4.12001 61.2115 3.75556 60.4182 3.66241 59.568C3.56925 58.7178 3.75292 57.8606 4.18364 57.1296C4.61425 56.3989 5.26698 55.8361 6.03877 55.5263C6.81037 55.2165 7.65963 55.1759 8.45564 55.4106L8.74648 55.4963L8.95694 55.278L15.0229 48.9871L15.3598 48.6377L15.0205 48.2906L2.61059 35.5929C1.90076 34.8662 1.5 33.8784 1.5 32.8461C1.5 31.8138 1.90073 30.826 2.61051 30.0994C2.61054 30.0994 2.61056 30.0993 2.61059 30.0993L15.0205 17.4016L15.3598 17.0545L15.0229 16.705L8.95694 10.4142L8.7462 10.1956L8.45508 10.2818C7.65716 10.518 6.80553 10.4782 6.03157 10.1683C5.25742 9.85827 4.60251 9.29449 4.17032 8.56199C3.73803 7.82931 3.55349 6.96984 3.64666 6.11729C3.73982 5.26478 4.10516 4.46931 4.68374 3.85372C5.26215 3.23832 6.0211 2.83717 6.84203 2.70999C7.66286 2.58282 8.50233 2.73622 9.23071 3.14763C9.9593 3.55917 10.5371 4.20664 10.8722 4.99157C11.2073 5.77666 11.2801 6.65377 11.0787 7.48616L11.0142 7.75301L11.2047 7.9507L17.3284 14.3051L17.686 14.6762L18.0461 14.3075L30.4282 1.6317C31.1378 0.905679 32.0977 0.5 33.0961 0.5C34.0944 0.5 35.0542 0.905648 35.7639 1.63162C35.7639 1.63165 35.764 1.63168 35.764 1.6317L48.1718 14.3316L48.527 14.6952L48.8847 14.334L55.0341 8.12416L55.2391 7.91715L55.16 7.63673C54.9279 6.81285 54.968 5.93343 55.2739 5.13562C55.5797 4.33795 56.1333 3.66822 56.8464 3.22851C57.5593 2.78894 58.3927 2.60311 59.2176 2.69838C60.0427 2.79366 60.8157 3.16509 61.4163 3.75748C62.017 4.35007 62.4115 5.13069 62.536 5.97898C62.6606 6.82733 62.5079 7.6935 62.1027 8.44263C61.6977 9.1916 61.0637 9.78048 60.3012 10.1202C59.539 10.4599 58.6893 10.5324 57.8833 10.3271L57.606 10.2564L57.4046 10.4598L51.1996 16.7266ZM32.7385 61.6611L33.0961 62.027L33.4537 61.6611L61.2692 33.1955L61.6107 32.8461L61.2692 32.4967L33.4537 4.03112L33.0961 3.66515L32.7385 4.03112L4.92293 32.4967L4.58146 32.8461L4.92293 33.1955L32.7385 61.6611Z" stroke="url(#paint0_linear)" stroke-opacity="0.3"/>
</g>
<g clip-path="url(#clip0)">
<g filter="url(#filter1_d)">
<path d="M47.9942 27.1327C46.9671 19.318 38.9505 18.2437 35.0706 18.6834V23.6389C35.6526 26.0346 38.3657 26.9663 39.6495 27.1327H47.9942Z" fill="#9147FF"/>
<path d="M35.5706 23.5768V19.1385C37.4373 18.9971 40.0715 19.211 42.3952 20.2678C44.7541 21.3406 46.789 23.2751 47.4093 26.6327H39.6827C39.0978 26.5522 38.185 26.2973 37.3563 25.7944C36.5315 25.2938 35.8321 24.5752 35.5706 23.5768Z" stroke="url(#paint1_linear)" stroke-opacity="0.3"/>
<path d="M35.0706 37.1506C45.1698 37.6354 47.8943 31.7673 47.9942 28.7726H39.6495C36.8765 28.7726 35.4415 31.0305 35.0706 32.1595V37.1506Z" fill="#9147FF"/>
<path d="M39.6495 29.2726H47.4515C47.2766 30.6183 46.5746 32.4136 44.9456 33.8967C43.1677 35.5153 40.2396 36.8026 35.5706 36.6694V32.2426C35.9452 31.1924 37.2444 29.2726 39.6495 29.2726Z" stroke="url(#paint2_linear)" stroke-opacity="0.3"/>
<path d="M33.2305 42.6052V47.3467H27.4963C24.3467 47.09 23.2169 44.6492 23.0458 43.4608V38.6836H28.8228C32.3148 39.254 33.2162 41.5356 33.2305 42.6052Z" fill="#9147FF"/>
<path d="M28.7817 39.1836C31.9939 39.724 32.7177 41.7802 32.7305 42.6087V46.8467H27.517C24.7201 46.6091 23.7119 44.4745 23.5458 43.4233V39.1836H28.7817Z" stroke="url(#paint3_linear)" stroke-opacity="0.3"/>
<g filter="url(#filter2_d)">
<path d="M28.8228 37.1506H23.0458V18.6834H28.5661C32.2634 19.0542 33.2162 21.381 33.2305 22.4981V33.5498C32.717 36.1167 30.0781 37.0199 28.8228 37.1506Z" fill="#9147FF"/>
<path d="M31.0356 35.8425C30.2412 36.3502 29.359 36.5878 28.796 36.6506H23.5458V19.1834H28.5407C31.9592 19.5359 32.7178 21.6381 32.7305 22.5015V33.4987C32.4974 34.5907 31.822 35.3398 31.0356 35.8425Z" stroke="url(#paint4_linear)" stroke-opacity="0.3"/>
</g>
</g>
</g>
<defs>
<filter id="filter0_d" x="0" y="0" width="66.19" height="70.69" filterUnits="userSpaceOnUse" color-interpolation-filters="sRGB">
<feFlood flood-opacity="0" result="BackgroundImageFix"/>
<feColorMatrix in="SourceAlpha" type="matrix" values="0 0 0 0 0 0 0 0 0 0 0 0 0 0 0 0 0 0 127 0" result="hardAlpha"/>
<feOffset dy="4"/>
<feGaussianBlur stdDeviation="0.5"/>
<feComposite in2="hardAlpha" operator="out"/>
<feColorMatrix type="matrix" values="0 0 0 0 0 0 0 0 0 0 0 0 0 0 0 0 0 0 0.25 0"/>
<feBlend mode="normal" in2="BackgroundImageFix" result="effect1_dropShadow"/>
<feBlend mode="normal" in="SourceGraphic" in2="effect1_dropShadow" result="shape"/>
</filter>
<filter id="filter1_d" x="19.0458" y="18.5995" width="32.9484" height="36.7472" filterUnits="userSpaceOnUse" color-interpolation-filters="sRGB">
<feFlood flood-opacity="0" result="BackgroundImageFix"/>
<feColorMatrix in="SourceAlpha" type="matrix" values="0 0 0 0 0 0 0 0 0 0 0 0 0 0 0 0 0 0 127 0" result="hardAlpha"/>
<feOffset dy="4"/>
<feGaussianBlur stdDeviation="2"/>
<feColorMatrix type="matrix" values="0 0 0 0 0 0 0 0 0 0 0 0 0 0 0 0 0 0 0.25 0"/>
<feBlend mode="normal" in2="BackgroundImageFix" result="effect1_dropShadow"/>
<feBlend mode="normal" in="SourceGraphic" in2="effect1_dropShadow" result="shape"/>
</filter>
<filter id="filter2_d" x="19.0458" y="18.6834" width="18.1848" height="26.4672" filterUnits="userSpaceOnUse" color-interpolation-filters="sRGB">
<feFlood flood-opacity="0" result="BackgroundImageFix"/>
<feColorMatrix in="SourceAlpha" type="matrix" values="0 0 0 0 0 0 0 0 0 0 0 0 0 0 0 0 0 0 127 0" result="hardAlpha"/>
<feOffset dy="4"/>
<feGaussianBlur stdDeviation="2"/>
<feComposite in2="hardAlpha" operator="out"/>
<feColorMatrix type="matrix" values="0 0 0 0 0 0 0 0 0 0 0 0 0 0 0 0 0 0 0.25 0"/>
<feBlend mode="normal" in2="BackgroundImageFix" result="effect1_dropShadow"/>
<feBlend mode="normal" in="SourceGraphic" in2="effect1_dropShadow" result="shape"/>
</filter>
<linearGradient id="paint0_linear" x1="33.095" y1="0" x2="33.095" y2="65.69" gradientUnits="userSpaceOnUse">
<stop stop-color="#282928"/>
<stop offset="1" stop-color="#333333"/>
</linearGradient>
<linearGradient id="paint1_linear" x1="41.5324" y1="18.5995" x2="41.5324" y2="27.1327" gradientUnits="userSpaceOnUse">
<stop stop-color="#333333"/>
<stop offset="1" stop-color="#282928"/>
</linearGradient>
<linearGradient id="paint2_linear" x1="41.5324" y1="28.7726" x2="41.5324" y2="37.1789" gradientUnits="userSpaceOnUse">
<stop stop-color="#333333"/>
<stop offset="1" stop-color="#282928"/>
</linearGradient>
<linearGradient id="paint3_linear" x1="28.1382" y1="38.6836" x2="28.1679" y2="47.3342" gradientUnits="userSpaceOnUse">
<stop stop-color="#333333"/>
<stop offset="1" stop-color="#282928"/>
</linearGradient>
<linearGradient id="paint4_linear" x1="28.1382" y1="18.6834" x2="28.1382" y2="37.1506" gradientUnits="userSpaceOnUse">
<stop stop-color="#333333"/>
<stop offset="1" stop-color="#282928"/>
</linearGradient>
<clipPath id="clip0">
<rect width="25.6759" height="29.0911" fill="white" transform="translate(22.7034 18.4569)"/>
</clipPath>
</defs>
</svg>
